<svg height="512" viewBox="0 0 512 512" width="512" xmlns="http://www.w3.org/2000/svg"><g id="ARROW_48" data-name="ARROW 48"><path d="m429.49 102.38h-303.77a126.38 126.38 0 0 0 -126.24 126.19 24 24 0 0 0 48 0 78.32 78.32 0 0 1 78.24-78.23h303.77c.09 0-60.69 60.93-60.69 60.93-10 10-9.92 26.36.83 35.64a24 24 0 0 0 32.63-1.22l102-101.9a24.67 24.67 0 0 0 0-34.9l-101.99-101.89a24 24 0 1 0 -33.95 34z"/><path d="m81.44 409.62h303.77a126.38 126.38 0 0 0 126.24-126.19 24 24 0 0 0 -48 0 78.32 78.32 0 0 1 -78.24 78.23h-303.77c-.09 0 60.69-60.93 60.69-60.93 10-10 9.92-26.36-.83-35.64a24 24 0 0 0 -32.63 1.22l-102 101.9a24.67 24.67 0 0 0 0 34.9l102 101.9a24 24 0 1 0 33.94-34z"/></g></svg>