<svg xmlns="http://www.w3.org/2000/svg" xmlns:xlink="http://www.w3.org/1999/xlink" width="128" height="128" viewBox="0 0 128 128"><defs><style>.cls-1{fill:none;}.cls-2{fill:#fafafa;}.cls-3{fill:url(#New_Pattern_Swatch_2);}.cls-4{fill:#3a3a38;}</style><pattern id="New_Pattern_Swatch_2" data-name="New Pattern Swatch 2" width="68" height="68" patternUnits="userSpaceOnUse" viewBox="0 0 68 68"><rect class="cls-1" width="68" height="68"/><rect class="cls-2" width="68" height="68"/></pattern></defs><title>Find</title><g id="Icon"><path class="cls-3" d="M80,88a40,40,0,1,1,40-40A40,40,0,0,1,80,88Z"/><path class="cls-4" d="M80,4A44,44,0,0,0,44,73.21a8.16,8.16,0,0,0-1.86,1.38L6.34,110.34a8,8,0,0,0,11.32,11.32L53.41,85.91a8.16,8.16,0,0,0,1.38-1.86A44,44,0,1,0,80,4Zm0,84a40,40,0,1,1,40-40A40,40,0,0,1,80,88Z"/></g></svg>