<svg xmlns="http://www.w3.org/2000/svg" xmlns:xlink="http://www.w3.org/1999/xlink" width="128" height="128" viewBox="0 0 128 128"><defs><style>.cls-1{fill:none;}.cls-2{fill:#f7da94;}.cls-3{fill:#fafafa;}.cls-4{fill:#f99846;}.cls-5{fill:url(#New_Pattern_Swatch_2);}.cls-6{fill:url(#New_Pattern_Swatch_10);}.cls-7{fill:url(#New_Pattern_Swatch_9);}.cls-8{fill:#1e8bcd;}</style><pattern id="New_Pattern_Swatch_2" data-name="New Pattern Swatch 2" width="68" height="68" patternUnits="userSpaceOnUse" viewBox="0 0 68 68"><rect class="cls-1" width="68" height="68"/><rect class="cls-3" width="68" height="68"/></pattern><pattern id="New_Pattern_Swatch_10" data-name="New Pattern Swatch 10" width="68" height="68" patternUnits="userSpaceOnUse" viewBox="0 0 68 68"><rect class="cls-1" width="68" height="68"/><rect class="cls-2" width="68" height="68"/></pattern><pattern id="New_Pattern_Swatch_9" data-name="New Pattern Swatch 9" width="68" height="68" patternUnits="userSpaceOnUse" viewBox="0 0 68 68"><rect class="cls-1" width="68" height="68"/><rect class="cls-4" width="68" height="68"/></pattern></defs><title>Open-2</title><g id="Icon"><path class="cls-5" d="M75.74,37H58.34l-1.17-1.17L46.34,25H8v78L44,49H75V42.5A21.28,21.28,0,0,1,75.74,37Z"/><path class="cls-5" d="M99,44h9v-.45c-3.62-3.72-6-6.15-6.4-6.55H91.42A7.49,7.49,0,0,0,89,42.5V49H99Z"/><polygon class="cls-6" points="11.47 105 85.86 105 117.19 58 99 58 99 53 46.14 53 11.47 105"/><path class="cls-5" d="M47.17,23H6v83l2-3V25H46.34L57.17,35.83,58.34,37h17.4a19.4,19.4,0,0,1,.64-2H59.17Z"/><path class="cls-5" d="M101.56,37a7.48,7.48,0,0,0-10.14,0H101.6Z"/><path class="cls-5" d="M108.44,44l-.44-.45V44Z"/><polygon class="cls-6" points="7.74 107 86.93 107 119.6 58 117.19 58 85.86 105 11.47 105 46.14 53 99 53 99 51 45.07 51 7.74 107"/><path class="cls-7" d="M101.56,37a7.48,7.48,0,0,0-10.14,0H101.6Z"/><path class="cls-7" d="M108,43.55V44h.44Z"/><path class="cls-7" d="M117.19,58,85.86,105H11.47L46.14,53H99V49H44L8,103V25H46.34L57.17,35.83,58.34,37h17.4a19.4,19.4,0,0,1,.64-2,20.76,20.76,0,0,1,.86-2H60L48,21H4v88H88l34-51h-4.81Z"/><polygon class="cls-8" points="104 49 104 53 128 53 128 29 124 29 124 49 104 49"/><path class="cls-8" d="M123.56,52.39c-7.12-7.34-17.93-18.46-18.53-19A12.5,12.5,0,0,0,84,42.5V44H80V42.5a16.5,16.5,0,0,1,27.76-12.06c.72.67,16.84,17.28,18.68,19.17Z"/></g></svg>