<svg xmlns="http://www.w3.org/2000/svg" xmlns:xlink="http://www.w3.org/1999/xlink" width="128" height="128" viewBox="0 0 128 128"><defs><style>.cls-1{fill:none;}.cls-2{fill:#fafafa;}.cls-3{fill:#a74ab0;}.cls-4{fill:url(#New_Pattern_Swatch_2);}.cls-5{fill:url(#New_Pattern_Swatch_7);}</style><pattern id="New_Pattern_Swatch_2" data-name="New Pattern Swatch 2" width="68" height="68" patternUnits="userSpaceOnUse" viewBox="0 0 68 68"><rect class="cls-1" width="68" height="68"/><rect class="cls-2" width="68" height="68"/></pattern><pattern id="New_Pattern_Swatch_7" data-name="New Pattern Swatch 7" width="68" height="68" patternUnits="userSpaceOnUse" viewBox="0 0 68 68"><rect class="cls-1" width="68" height="68"/><rect class="cls-3" width="68" height="68"/></pattern></defs><title>Save</title><g id="Icon"><polygon class="cls-4" points="114 114 18 114 14 109 14 14 114 14 114 114"/><path class="cls-5" d="M114,14V114H20l-6-6V14H114m4-4H10V110l8,8H118V10Z"/><path class="cls-5" d="M98,14V66H30V14H98m4-4H26V70h76V10Z"/><path class="cls-5" d="M90,86v28H34V86m60-4H30v36H94V82Z"/><path class="cls-5" d="M58,94v20H46V94h4m3.83-4H42v28H62V90Z"/></g></svg>