<svg xmlns="http://www.w3.org/2000/svg" xmlns:xlink="http://www.w3.org/1999/xlink" width="24" height="24" viewBox="0 0 24 24"><defs><style>.cls-1{fill:none;}.cls-2{fill:#f7da94;}.cls-3{fill:#fafafa;}.cls-4{fill:#797774;}.cls-5{fill:#f99846;}.cls-6{fill:url(#New_Pattern_Swatch_2);}.cls-7{fill:url(#New_Pattern_Swatch_4);}.cls-8{fill:#3a3a38;}.cls-9{fill:url(#New_Pattern_Swatch_10);}.cls-10{fill:url(#New_Pattern_Swatch_9);}</style><pattern id="New_Pattern_Swatch_2" data-name="New Pattern Swatch 2" width="68" height="68" patternUnits="userSpaceOnUse" viewBox="0 0 68 68"><rect class="cls-1" width="68" height="68"/><rect class="cls-3" width="68" height="68"/></pattern><pattern id="New_Pattern_Swatch_4" data-name="New Pattern Swatch 4" width="68" height="68" patternUnits="userSpaceOnUse" viewBox="0 0 68 68"><rect class="cls-1" width="68" height="68"/><rect class="cls-4" width="68" height="68"/></pattern><pattern id="New_Pattern_Swatch_10" data-name="New Pattern Swatch 10" width="68" height="68" patternUnits="userSpaceOnUse" viewBox="0 0 68 68"><rect class="cls-1" width="68" height="68"/><rect class="cls-2" width="68" height="68"/></pattern><pattern id="New_Pattern_Swatch_9" data-name="New Pattern Swatch 9" width="68" height="68" patternUnits="userSpaceOnUse" viewBox="0 0 68 68"><rect class="cls-1" width="68" height="68"/><rect class="cls-5" width="68" height="68"/></pattern></defs><title>Battery-50-Charging</title><g id="Mask"><rect class="cls-6" x="8" y="6" width="8" height="7"/><path class="cls-6" d="M16.81,4H14V2.5a.47.47,0,0,0-.51-.5h-3a.46.46,0,0,0-.5.5V4H7.19A1.19,1.19,0,0,0,6,5.19V20.81A1.19,1.19,0,0,0,7.19,22h9.07l.29-1H7V5H17V16.11l1-1V5.19A1.19,1.19,0,0,0,16.81,4Z"/><polygon class="cls-7" points="8 13 8 20 13.14 20 16 17.12 16 13 8 13"/><path class="cls-8" d="M13.5,1h-3A1.46,1.46,0,0,0,9,2.5V3H7.19A2.19,2.19,0,0,0,5,5.19V20.81A2.19,2.19,0,0,0,7.19,23H16l.29-1H7.19A1.19,1.19,0,0,1,6,20.81V5.19A1.19,1.19,0,0,1,7.19,4H10V2.5a.46.46,0,0,1,.5-.5h3a.47.47,0,0,1,.51.5V4h2.81A1.19,1.19,0,0,1,18,5.19V15.1l1-1V5.19A2.19,2.19,0,0,0,16.81,3H15V2.5A1.46,1.46,0,0,0,13.5,1Z"/><polygon class="cls-8" points="17 5 7 5 7 13 7 21 16.55 21 16.84 20 16 20 13.14 20 8 20 8 13 8 6 16 6 16 13 16 17.12 17 16.11 17 13 17 5"/></g><g id="Overlay"><polygon class="cls-9" points="23.79 17 16.67 24.19 18.17 19 15.54 19 22.67 11.81 21.17 17 23.79 17"/><path class="cls-10" d="M20.62,15.3l-.41,1.42L19.84,18h1.55l-2.67,2.7.41-1.42L19.5,18H17.94l2.68-2.7m2.05-3.49L15.54,19h2.63l-1.5,5.19L23.79,17H21.17l1.5-5.19Z"/></g></svg>