<svg xmlns="http://www.w3.org/2000/svg" xmlns:xlink="http://www.w3.org/1999/xlink" width="24" height="24" viewBox="0 0 24 24"><defs><style>.cls-1{fill:none;}.cls-2{fill:#fafafa;}.cls-3{fill:#ea3f41;}.cls-4{fill:#0e65af;}.cls-5{fill:#a74ab0;}.cls-6{fill:url(#New_Pattern_Swatch_5);}.cls-7{fill:#1e8bcd;}.cls-8{fill:url(#New_Pattern_Swatch_2);}.cls-9{fill:url(#New_Pattern_Swatch_3);}.cls-10{fill:url(#New_Pattern_Swatch_7);}</style><pattern id="New_Pattern_Swatch_5" data-name="New Pattern Swatch 5" width="68" height="68" patternUnits="userSpaceOnUse" viewBox="0 0 68 68"><rect class="cls-1" width="68" height="68"/><rect class="cls-4" width="68" height="68"/></pattern><pattern id="New_Pattern_Swatch_2" data-name="New Pattern Swatch 2" width="68" height="68" patternUnits="userSpaceOnUse" viewBox="0 0 68 68"><rect class="cls-1" width="68" height="68"/><rect class="cls-2" width="68" height="68"/></pattern><pattern id="New_Pattern_Swatch_3" data-name="New Pattern Swatch 3" width="68" height="68" patternUnits="userSpaceOnUse" viewBox="0 0 68 68"><rect class="cls-1" width="68" height="68"/><rect class="cls-3" width="68" height="68"/></pattern><pattern id="New_Pattern_Swatch_7" data-name="New Pattern Swatch 7" width="68" height="68" patternUnits="userSpaceOnUse" viewBox="0 0 68 68"><rect class="cls-1" width="68" height="68"/><rect class="cls-5" width="68" height="68"/></pattern></defs><title>Memory-Card-Save</title><g id="Mask"><path class="cls-6" d="M3,10V22c0,.74.19,1,1.06,1H13V22H4V11H5V6.24a.43.43,0,0,1,.06-.18V5H4V2H17.43L20,4.43V5H18.94V6.06a.43.43,0,0,1,.06.18V8h1v5h1V7H19.94V6H21V4L17.82,1H4.06C3.19,1,3,1.26,3,2V6H4.06v4Z"/><path class="cls-7" d="M7.15,5h9.7a3.33,3.33,0,0,1,2.09,1.06V5H20V4.43L17.43,2H4V5H5.06V6.06A3.33,3.33,0,0,1,7.15,5Z"/><polygon class="cls-7" points="19 8 19 10 19 13 20 13 20 8 19 8"/><path class="cls-7" d="M5,19.5V11H4V22h9V21H7.15C6.54,21,5,20,5,19.5Z"/><rect class="cls-6" x="5" y="10" width="0.06" height="1"/><rect class="cls-8" x="5" y="10" width="0.06" height="1"/><path class="cls-7" d="M5.06,10v1H5v8.5C5,20,6.54,21,7.15,21H13V13h6V10Z"/><path class="cls-8" d="M5.06,10v1H5v8.5C5,20,6.54,21,7.15,21H13V13h6V10Z"/><path class="cls-6" d="M5.06,7.11V6.06A.43.43,0,0,0,5,6.24v1A.2.2,0,0,1,5.06,7.11Z"/><path class="cls-9" d="M5.06,7.11V6.06A.43.43,0,0,0,5,6.24v1A.2.2,0,0,1,5.06,7.11Z"/><path class="cls-6" d="M19,7.26v-1a.43.43,0,0,0-.06-.18V7S19,7.06,19,7.26Z"/><path class="cls-9" d="M19,7.26v-1a.43.43,0,0,0-.06-.18V7S19,7.06,19,7.26Z"/><path class="cls-7" d="M6.83,7H18.37c.35,0,.5-.06.57,0V6.06A3.33,3.33,0,0,0,16.85,5H7.15A3.33,3.33,0,0,0,5.06,6.06V7.11C5.31,6.85,6.29,7,6.83,7Z"/><path class="cls-9" d="M6.83,7H18.37c.35,0,.5-.06.57,0V6.06A3.33,3.33,0,0,0,16.85,5H7.15A3.33,3.33,0,0,0,5.06,6.06V7.11C5.31,6.85,6.29,7,6.83,7Z"/><path class="cls-6" d="M5.06,7.11A.2.2,0,0,0,5,7.26V10h.06Z"/><path class="cls-8" d="M5.06,7.11A.2.2,0,0,0,5,7.26V10h.06Z"/><path class="cls-9" d="M5.06,7.11A.2.2,0,0,0,5,7.26V10h.06Z"/><path class="cls-6" d="M18.94,7V8H19V7.26C19,7.06,19,7,18.94,7Z"/><path class="cls-8" d="M18.94,7V8H19V7.26C19,7.06,19,7,18.94,7Z"/><path class="cls-9" d="M18.94,7V8H19V7.26C19,7.06,19,7,18.94,7Z"/><path class="cls-7" d="M18.94,7c-.07,0-.22,0-.57,0H6.83c-.54,0-1.52-.15-1.77.11V10H19V8h-.06Z"/><path class="cls-8" d="M18.94,7c-.07,0-.22,0-.57,0H6.83c-.54,0-1.52-.15-1.77.11V10H19V8h-.06Z"/><path class="cls-9" d="M18.94,7c-.07,0-.22,0-.57,0H6.83c-.54,0-1.52-.15-1.77.11V10H19V8h-.06Z"/></g><g id="Overlay"><polygon class="cls-2" points="16.5 14.5 14.5 14.5 14.5 22.5 15.5 23.5 17.5 23.5 20.5 23.5 23.5 23.5 23.5 14.5 21.5 14.5 16.5 14.5"/><path class="cls-10" d="M16,14H14v8.71L15.29,24H24V14H16Zm5,1v3H17V15Zm-3,8V21h2v2Zm5-8v8H21V20H17v3H15.71L15,22.29V15h1v4h6V15Z"/></g></svg>