<svg xmlns="http://www.w3.org/2000/svg" xmlns:xlink="http://www.w3.org/1999/xlink" width="24" height="24" viewBox="0 0 24 24"><defs><style>.cls-1{fill:none;}.cls-2{fill:#ea3f41;}.cls-3{fill:#fafafa;}.cls-4{fill:#3a3a38;}.cls-5{fill:#1e8bcd;}.cls-6{fill:url(#New_Pattern_Swatch_3);}</style><pattern id="New_Pattern_Swatch_3" data-name="New Pattern Swatch 3" width="68" height="68" patternUnits="userSpaceOnUse" viewBox="0 0 68 68"><rect class="cls-1" width="68" height="68"/><rect class="cls-2" width="68" height="68"/></pattern></defs><title>Monitor-Delete</title><g id="Mask"><polygon class="cls-3" points="2 5 2 16 12.18 16 11.18 15 3 15 3 6 20 6 20 13.18 21 12.18 21 5 2 5"/><polygon class="cls-4" points="1 17 11 17 11 19 7 19 7 20 11 20 12 20 13.18 20 14.18 19 12 19 12 17 13.18 17 12.18 16 2 16 2 5 21 5 21 12.18 22 11.18 22 4 1 4 1 17"/><polygon class="cls-5" points="3 6 3 15 11.18 15 10.68 14.49 14.49 10.68 18.5 14.68 20 13.18 20 6 3 6"/></g><g id="Overlay"><polygon class="cls-6" points="22.5 13.51 18.5 17.51 14.49 13.51 13.51 14.49 17.51 18.5 13.51 22.5 14.49 23.5 18.5 19.49 22.5 23.5 23.5 22.5 19.49 18.5 23.5 14.49 22.5 13.51"/></g></svg>