<svg xmlns="http://www.w3.org/2000/svg" xmlns:xlink="http://www.w3.org/1999/xlink" width="24" height="24" viewBox="0 0 24 24"><defs><style>.cls-1{fill:none;}.cls-2{fill:#797774;}.cls-3{fill:#fafafa;}.cls-4{fill:#3a3a38;}.cls-5{fill:#c8c6c4;}.cls-6{fill:url(#New_Pattern_Swatch_3);}</style><pattern id="New_Pattern_Swatch_3" data-name="New Pattern Swatch 3" width="68" height="68" patternUnits="userSpaceOnUse" viewBox="0 0 68 68"><rect class="cls-1" width="68" height="68"/><rect class="cls-2" width="68" height="68"/></pattern></defs><title>NAS</title><g id="Icon"><rect class="cls-3" x="2" y="5" width="20.01" height="15.01" rx="0.62" ry="0.62"/><path class="cls-4" d="M21.39,21H2.61A1.62,1.62,0,0,1,1,19.39V5.61A1.62,1.62,0,0,1,2.61,4H21.39A1.62,1.62,0,0,1,23,5.61V19.39A1.62,1.62,0,0,1,21.39,21ZM2.61,5A.61.61,0,0,0,2,5.61V19.39a.61.61,0,0,0,.61.61H21.39a.61.61,0,0,0,.61-.61V5.61A.61.61,0,0,0,21.39,5Z"/><rect class="cls-5" x="11" y="7" width="4.01" height="11.01"/><rect class="cls-5" x="16" y="7" width="4.01" height="11.01"/><rect class="cls-5" x="6" y="7" width="4.01" height="11.01"/><path class="cls-4" d="M15,6H5V19H21V6H15ZM10,18H6V7h4Zm5,0H11V7h4ZM20,7V18H16V7Z"/><rect class="cls-6" x="17" y="8" width="2" height="2"/><rect class="cls-6" x="12" y="8" width="2" height="2"/><rect class="cls-6" x="7" y="8" width="2" height="2"/></g></svg>