<svg xmlns="http://www.w3.org/2000/svg" xmlns:xlink="http://www.w3.org/1999/xlink" width="24" height="24" viewBox="0 0 24 24"><defs><style>.cls-1{fill:none;}.cls-2{fill:#358f4b;}.cls-3{fill:#ea3f41;}.cls-4{fill:url(#New_Pattern_Swatch_11);}.cls-5{fill:#3a3a38;}.cls-6{fill:#fafafa;}.cls-7{fill:#1e8bcd;}.cls-8{fill:url(#New_Pattern_Swatch_3);}</style><pattern id="New_Pattern_Swatch_11" data-name="New Pattern Swatch 11" width="68" height="68" patternUnits="userSpaceOnUse" viewBox="0 0 68 68"><rect class="cls-1" width="68" height="68"/><rect class="cls-2" width="68" height="68"/></pattern><pattern id="New_Pattern_Swatch_3" data-name="New Pattern Swatch 3" width="68" height="68" patternUnits="userSpaceOnUse" viewBox="0 0 68 68"><rect class="cls-1" width="68" height="68"/><rect class="cls-3" width="68" height="68"/></pattern></defs><title>Network-Computer-Error</title><g id="Mask"><path class="cls-4" d="M11,19a4.19,4.19,0,0,1,0-.5V19Z"/><path class="cls-4" d="M11,16v2.5a7.38,7.38,0,0,1,.44-2.5Z"/><rect class="cls-4" x="4" y="21" width="5" height="2"/><path class="cls-5" d="M11,21H10v2h2.51a7.46,7.46,0,0,1-1.36-3H11Z"/><path class="cls-6" d="M3,2V12H14.77a7.48,7.48,0,0,1,3.73-1H4V3H19v8h-.5a7.41,7.41,0,0,1,1.5.15V2Z"/><path class="cls-5" d="M2,13h9v1H8v1h3.87a8.07,8.07,0,0,1,.64-1H12V13h1.41a7.81,7.81,0,0,1,1.36-1H3V2H20v9.15a6.75,6.75,0,0,1,1,.29V1H2Z"/><polygon class="cls-7" points="19 3 4 3 4 11 18.5 11 19 11 19 3"/></g><g id="Overlay"><circle class="cls-6" cx="18.5" cy="18.5" r="5"/><path class="cls-8" d="M18.5,24A5.5,5.5,0,1,1,24,18.5,5.51,5.51,0,0,1,18.5,24Zm0-10A4.5,4.5,0,1,0,23,18.5,4.51,4.51,0,0,0,18.5,14Z"/><polygon class="cls-8" points="20.65 15.65 18.5 17.79 16.35 15.65 15.65 16.35 17.79 18.5 15.65 20.65 16.35 21.35 18.5 19.21 20.65 21.35 21.35 20.65 19.21 18.5 21.35 16.35 20.65 15.65"/></g></svg>