<svg xmlns="http://www.w3.org/2000/svg" xmlns:xlink="http://www.w3.org/1999/xlink" width="24" height="24" viewBox="0 0 24 24"><defs><style>.cls-1{fill:none;}.cls-2{fill:#fafafa;}.cls-3{fill:#0e65af;}.cls-4{fill:url(#New_Pattern_Swatch_2);}.cls-5{fill:url(#New_Pattern_Swatch_5);}</style><pattern id="New_Pattern_Swatch_2" data-name="New Pattern Swatch 2" width="68" height="68" patternUnits="userSpaceOnUse" viewBox="0 0 68 68"><rect class="cls-1" width="68" height="68"/><rect class="cls-2" width="68" height="68"/></pattern><pattern id="New_Pattern_Swatch_5" data-name="New Pattern Swatch 5" width="68" height="68" patternUnits="userSpaceOnUse" viewBox="0 0 68 68"><rect class="cls-1" width="68" height="68"/><rect class="cls-3" width="68" height="68"/></pattern></defs><title>Server-Previous</title><g id="Mask"><path class="cls-4" d="M7,5h9V2H7ZM9,3h5V4H9Z"/><rect class="cls-4" x="7" y="9" width="9" height="2"/><rect class="cls-4" x="7" y="6" width="9" height="2"/><polygon class="cls-4" points="16 12 7 12 7 15.17 7.77 15.94 7 16.71 7 17 11 17 11 22 16 22 16 12"/><polygon class="cls-5" points="6.71 17 7 17 7 16.71 6.71 17"/><path class="cls-5" d="M17,1H6V14.17l1,1V12h9V22H6.71l1,1H17ZM16,11H7V9h9Zm0-3H7V6h9Zm0-3H7V2h9Z"/><rect class="cls-5" x="9" y="3" width="5" height="1"/></g><g id="Overlay"><polygon class="cls-5" points="4.94 15.94 4.06 15.06 -0.38 19.5 4.06 23.94 4.94 23.06 1.88 20 9 20 9 19 1.88 19 4.94 15.94"/></g></svg>