<svg xmlns="http://www.w3.org/2000/svg" xmlns:xlink="http://www.w3.org/1999/xlink" width="24" height="24" viewBox="0 0 24 24"><defs><style>.cls-1{fill:none;}.cls-2{fill:#358f4b;}.cls-3{fill:#fafafa;}.cls-4{fill:#3a3a38;}.cls-5{fill:url(#New_Pattern_Swatch_2);}.cls-6{fill:url(#New_Pattern_Swatch_11);}</style><pattern id="New_Pattern_Swatch_2" data-name="New Pattern Swatch 2" width="68" height="68" patternUnits="userSpaceOnUse" viewBox="0 0 68 68"><rect class="cls-1" width="68" height="68"/><rect class="cls-3" width="68" height="68"/></pattern><pattern id="New_Pattern_Swatch_11" data-name="New Pattern Swatch 11" width="68" height="68" patternUnits="userSpaceOnUse" viewBox="0 0 68 68"><rect class="cls-1" width="68" height="68"/><rect class="cls-2" width="68" height="68"/></pattern></defs><title>Signal-Details</title><g id="Mask"><polygon class="cls-3" points="14 8 14 10 14 14 17 14 17 8 14 8"/><polygon class="cls-3" points="10 11 10 14 10 22 12 22 12 14 13 14 13 11 10 11"/><polygon class="cls-3" points="6 17 6 22 9 22 9 15 6 15 6 17"/><polygon class="cls-3" points="18 3 18 7 18 14 21 14 21 3 18 3"/><rect class="cls-3" x="2" y="18" width="3" height="4"/><polygon class="cls-4" points="5 22 2 22 2 18 5 18 5 17 1 17 1 23 5 23 5 22"/><polygon class="cls-4" points="9 22 6 22 6 17 6 15 9 15 9 14 5 14 5 17 5 18 5 22 5 23 6 23 9 23 9 22"/><polygon class="cls-4" points="10 14 10 11 13 11 13 10 9 10 9 14 9 15 9 22 9 23 10 23 12 23 12 22 10 22 10 14"/><polygon class="cls-4" points="14 8 17 8 17 7 13 7 13 10 13 11 13 14 14 14 14 10 14 8"/><polygon class="cls-4" points="17 7 17 8 17 14 18 14 18 7 18 3 21 3 21 14 22 14 22 2 17 2 17 7"/></g><g id="Overlay"><rect class="cls-5" x="13" y="15" width="11" height="9"/><path class="cls-6" d="M23,16V23H14V16H23m1-1H13v9H24V15Z"/><rect class="cls-6" x="15" y="17" width="1" height="1"/><rect class="cls-6" x="15" y="21" width="1" height="1"/><rect class="cls-6" x="17" y="17" width="5" height="1"/><rect class="cls-6" x="17" y="19" width="4" height="1"/><rect class="cls-6" x="17" y="21" width="5" height="1"/></g></svg>