<svg xmlns="http://www.w3.org/2000/svg" xmlns:xlink="http://www.w3.org/1999/xlink" width="24" height="24" viewBox="0 0 24 24"><defs><style>.cls-1{fill:none;}.cls-2{fill:#fafafa;}.cls-3{fill:#ea3f41;}.cls-4{fill:#f99846;}.cls-5{fill:url(#New_Pattern_Swatch_3);}.cls-6{fill:url(#New_Pattern_Swatch_2);}.cls-7{fill:#3a3a38;}.cls-8{fill:url(#New_Pattern_Swatch_9);}</style><pattern id="New_Pattern_Swatch_3" data-name="New Pattern Swatch 3" width="68" height="68" patternUnits="userSpaceOnUse" viewBox="0 0 68 68"><rect class="cls-1" width="68" height="68"/><rect class="cls-3" width="68" height="68"/></pattern><pattern id="New_Pattern_Swatch_2" data-name="New Pattern Swatch 2" width="68" height="68" patternUnits="userSpaceOnUse" viewBox="0 0 68 68"><rect class="cls-1" width="68" height="68"/><rect class="cls-2" width="68" height="68"/></pattern><pattern id="New_Pattern_Swatch_9" data-name="New Pattern Swatch 9" width="68" height="68" patternUnits="userSpaceOnUse" viewBox="0 0 68 68"><rect class="cls-1" width="68" height="68"/><rect class="cls-4" width="68" height="68"/></pattern></defs><title>Toolbox-Warning</title><g id="Mask"><path class="cls-5" d="M2,20.31V14H1v6.31A1.73,1.73,0,0,0,2.77,22H12l.53-1H2.77A.73.73,0,0,1,2,20.31Z"/><path class="cls-5" d="M1,8.69V13H2V8.69A.73.73,0,0,1,2.77,8H21.23a.73.73,0,0,1,.77.69V13h1V8.69A1.73,1.73,0,0,0,21.23,7H2.77A1.73,1.73,0,0,0,1,8.69Z"/><polygon class="cls-5" points="22 16.27 23 18.18 23 14 22 14 22 16.27"/><polygon class="cls-6" points="20.81 14 22 16.27 22 14 20.81 14"/><path class="cls-6" d="M22,8.69A.73.73,0,0,0,21.23,8H2.77A.73.73,0,0,0,2,8.69V13h8V12h4v1h2.74l1.77-3.39L20.29,13H22Z"/><path class="cls-6" d="M14,15H10V14H2v6.31a.73.73,0,0,0,.77.69h9.78l3.66-7H14Z"/><rect class="cls-5" x="22" y="13" width="1" height="1"/><rect class="cls-5" x="22" y="13" width="1" height="1"/><rect class="cls-5" x="1" y="13" width="1" height="1"/><rect class="cls-5" x="1" y="13" width="1" height="1"/><rect class="cls-6" x="2" y="13" width="8" height="1"/><rect class="cls-5" x="2" y="13" width="8" height="1"/><polygon class="cls-6" points="22 13 20.29 13 20.81 14 22 14 22 13"/><polygon class="cls-5" points="22 13 20.29 13 20.81 14 22 14 22 13"/><polygon class="cls-6" points="14 14 16.21 14 16.74 13 14 13 14 14"/><polygon class="cls-5" points="14 14 16.21 14 16.74 13 14 13 14 14"/><polygon class="cls-7" points="10 15 14 15 14 14 14 13 14 12 10 12 10 13 10 14 10 15"/><path class="cls-7" d="M17,6V3.69A1.79,1.79,0,0,0,15.13,2H8.88A1.79,1.79,0,0,0,7,3.69V6H9V5.77A1.77,1.77,0,0,1,10.77,4h2.46A1.77,1.77,0,0,1,15,5.77V6Z"/></g><g id="Overlay"><polygon class="cls-2" points="14.06 23.5 22.96 23.5 18.51 15 14.06 23.5"/><path class="cls-8" d="M23.79,24H13.23l5.28-10.08Zm-8.91-1h7.26l-3.63-6.92Z"/></g></svg>