<svg xmlns="http://www.w3.org/2000/svg" xmlns:xlink="http://www.w3.org/1999/xlink" width="24" height="24" viewBox="0 0 24 24"><defs><style>.cls-1{fill:none;}.cls-2{fill:#0e65af;}.cls-3{fill:#fafafa;}.cls-4{fill:url(#New_Pattern_Swatch_5);}</style><pattern id="New_Pattern_Swatch_5" data-name="New Pattern Swatch 5" width="68" height="68" patternUnits="userSpaceOnUse" viewBox="0 0 68 68"><rect class="cls-1" width="68" height="68"/><rect class="cls-2" width="68" height="68"/></pattern></defs><title>Workgroup-Next</title><g id="Mask"><polygon class="cls-3" points="15 3.95 15 5 15 6 15 7 17 7 17 8 15 8 15 10 17 10 17 11 15 11 15 13 17 13 17 14 15 14 15 17 17.05 17 17.05 16.76 16.23 15.94 17.05 15.13 17.05 3.95 15 3.95"/><polygon class="cls-3" points="9 21 7.95 21 7.95 22.05 17.05 22.05 17.05 22 13 22 13 21 11 21 9 21"/><polygon class="cls-3" points="8 14 8 13 15 13 15 11 8 11 8 10 15 10 15 8 8 8 8 7 15 7 15 6 10 6 10 5 15 5 15 3.95 7.95 3.95 7.95 21 9 21 9 19 11 19 11 21 13 21 13 17 15 17 15 14 8 14"/><polygon class="cls-3" points="8 8 15 8 17 8 17 7 15 7 8 7 8 8"/><polygon class="cls-3" points="8 11 15 11 17 11 17 10 15 10 8 10 8 11"/><polygon class="cls-3" points="8 14 15 14 17 14 17 13 15 13 8 13 8 14"/><rect class="cls-3" x="10" y="5" width="5" height="1"/><rect class="cls-3" x="9" y="19" width="2" height="2"/></g><g id="Overlay"><polygon class="cls-4" points="4.95 1.95 14.05 1.95 14.05 2 15 2 15 1 4 1 4 21 5 21 5 20.05 4.95 20.05 4.95 1.95"/><polygon class="cls-4" points="17.05 22.05 7.95 22.05 7.95 21 7.95 3.95 15 3.95 17.05 3.95 17.05 15.13 18 14.17 18 3 15 3 7 3 7 21 7 23 16.29 23 17.29 22 17.05 22 17.05 22.05"/><polygon class="cls-4" points="17.05 17 17.29 17 17.05 16.76 17.05 17"/><polygon class="cls-4" points="17 7 15 7 8 7 8 8 15 8 17 8 17 7"/><polygon class="cls-4" points="17 10 15 10 8 10 8 11 15 11 17 11 17 10"/><polygon class="cls-4" points="17 14 17 13 15 13 8 13 8 14 15 14 17 14"/><rect class="cls-4" x="10" y="5" width="5" height="1"/><rect class="cls-4" x="9" y="19" width="2" height="2"/><polygon class="cls-4" points="19.06 15.94 22.12 19 15 19 15 20 22.12 20 19.06 23.06 19.94 23.94 24.38 19.5 19.94 15.06 19.06 15.94"/></g></svg>