<?xml version="1.0" encoding="utf-8"?>
<!-- Generator: Adobe Illustrator 25.1.0, SVG Export Plug-In . SVG Version: 6.00 Build 0)  -->
<svg version="1.1" id="Layer_1" xmlns="http://www.w3.org/2000/svg" xmlns:xlink="http://www.w3.org/1999/xlink" x="0px" y="0px"
	 viewBox="0 0 305.7 309.7" style="enable-background:new 0 0 305.7 309.7;" xml:space="preserve">
<style type="text/css">
	.st0{fill-rule:evenodd;clip-rule:evenodd;fill:#F0DFCF;}
	.st1{fill-rule:evenodd;clip-rule:evenodd;fill:#57433B;}
	.st2{fill-rule:evenodd;clip-rule:evenodd;fill:#F0BF92;}
	.st3{fill-rule:evenodd;clip-rule:evenodd;fill:#D7A47B;}
	.st4{fill-rule:evenodd;clip-rule:evenodd;fill:#010101;}
	.st5{fill-rule:evenodd;clip-rule:evenodd;fill:#FFFFFF;}
	.st6{fill-rule:evenodd;clip-rule:evenodd;fill:#845260;}
	.st7{fill-rule:evenodd;clip-rule:evenodd;fill:#BDA2AA;}
</style>
<path class="st0" d="M152.8,5.7c82.6,0,149.5,66.9,149.5,149.5c0,82.6-66.9,149.5-149.5,149.5S3.4,237.7,3.4,155.2
	C3.4,72.6,70.3,5.7,152.8,5.7L152.8,5.7z"/>
<path class="st1" d="M135.2,192.2c-7.7-3.7-14.7-9.7-20.9-17.1c2.9,5.4,6.4,10.9,10.9,16.5c-18-10.8-28.6-40.6-34.4-60.1
	c2,12.5,6.7,26.5,15,41.2C58.3,132.2,79.6,37.1,152.6,37.1c73,0,94.3,95.1,46.9,135.6c8.3-14.7,13-28.6,15-41.2
	c-5.8,19.5-16.5,49.3-34.4,60.1c4.5-5.6,8.1-11.1,10.9-16.5c-6.2,7.4-13.2,13.4-20.9,17.1C159.5,198.4,145.7,198.4,135.2,192.2
	L135.2,192.2z"/>
<path class="st2" d="M133.6,156.9c0.1,23.7,7.1,47.5-21.2,54c-47.8,11-59.1,27.4-61.2,53.8c26.7,24.7,62.4,39.9,101.6,39.9
	c39.1,0,74.7-15,101.3-39.6c-2.8-26-15.1-43.4-61.9-54.1c-28.4-6.5-21.4-30.3-21.2-54C158.5,156.9,146.1,156.9,133.6,156.9
	L133.6,156.9z"/>
<path class="st3" d="M132.2,168.5c4.4,4.7,9,6.8,11,8.2c7.9,5.4,10.6,5.4,18.6,0c2-1.4,6.3-3.5,10.7-8.2
	C160.9,197.9,144,197.5,132.2,168.5L132.2,168.5z"/>
<path class="st2" d="M163.1,179c5.1-3,23.2-18.2,27.2-27.5c4.6-10.3,5.4-21,4.2-31.6c-0.9-7.8-0.1-26.2-15.5-39.2
	c-32-23.9-66.2,7.6-68.7,39.2c-0.9,10.7-0.4,21.3,4.2,31.6c4.1,9.2,22.1,24.4,27.2,27.5C150.8,184.4,153.9,184.4,163.1,179
	L163.1,179z"/>
<path class="st2" d="M107.3,121.2c-3.2,0.6-4.8,6.8-3.6,14.1c1.2,7.2,4.8,12.7,8,12.2C117.2,146.5,118.8,118.9,107.3,121.2
	L107.3,121.2z M198.3,119.7c3.2,0.6,4.9,6.9,3.6,14.3c-1.2,7.4-4.9,12.9-8.1,12.3C188.3,145.4,186.6,117.4,198.3,119.7L198.3,119.7z
	"/>
<path class="st4" d="M134.4,117.7c1.9,0,3.5,2.4,3.5,5.3c0,2.9-1.6,5.3-3.5,5.3c-1.9,0-3.5-2.4-3.5-5.3
	C130.8,120,132.4,117.7,134.4,117.7L134.4,117.7z M170.6,117.7c1.9,0,3.5,2.4,3.5,5.3c0,2.9-1.6,5.3-3.5,5.3c-1.9,0-3.5-2.4-3.5-5.3
	C167.1,120,168.6,117.7,170.6,117.7L170.6,117.7z"/>
<path class="st5" d="M167.2,152.9c-4.6,14.3-24.4,14.4-29.5,0C147.2,155.8,157.7,155.9,167.2,152.9L167.2,152.9z"/>
<path class="st3" d="M150.3,131.9c-1,3.3-5.3,12.9,7.5,14.5C147,147.9,144.1,141.7,150.3,131.9L150.3,131.9z"/>
<path class="st4" d="M180.8,114c1.4,1.5-4.9-0.1-10.5,0.5c-3.7,0.4-6.7,1.6-7.2-0.2c-0.5-1.6,2.7-2.5,7.1-2.8
	C173.6,111.3,179.2,112.4,180.8,114L180.8,114z M122.9,114c-1.4,1.5,4.9-0.1,10.5,0.5c3.7,0.4,6.7,1.6,7.2-0.2
	c0.5-1.6-2.7-2.5-7.1-2.8C130,111.3,124.4,112.4,122.9,114L122.9,114z"/>
<path class="st6" d="M129.2,201.3c-3.3,4.4-8.6,7.8-16.8,9.7c-47.8,11-59.1,27.4-61.2,53.8c26.7,24.7,62.4,39.9,101.6,39.9
	c39.1,0,74.7-15,101.3-39.6c-2.8-26-15.1-43.4-61.9-54.1c-8.6-2-13.9-5.5-17.2-10.1l-22.7,71.4L129.2,201.3L129.2,201.3z"/>
<path class="st1" d="M154.9,45.9c25,0.6,39.1,12.4,42.1,36.5c2.6,21.6-0.1,36.7-4.8,46.2c-2.7-10.8-6.2-25.9-6.8-32.8
	c-1.3,6.5,0.7,17.2,1.9,23.9c-6.8-7.9-12.6-18.4-12.5-41.3c-3.7,13.9-11.3,29-20,35.8c7.3-15.2,11.7-33.3,13-40.1
	c-3.1,8.2-3.2,23.3-21.8,35c9.2-15.4,10.5-21.8,14.4-33.8c-6.2,10.8-40.9,60.2-54.8,71.9C90.3,128.8,75.1,43.9,154.9,45.9
	L154.9,45.9z"/>
<path class="st7" d="M186.8,239.4c28.7,0.9,4.9-35.5-14.9-45l-19.6,77.7l-19.7-77.6c-19.7,9.5-44.1,45.8-15.3,44.9
	c22.5-0.7,28.5,16.3,35,32.7C159.1,256.1,164,238.7,186.8,239.4L186.8,239.4z"/>
</svg>
