<?xml version="1.0" encoding="utf-8"?>
<!-- Generator: Adobe Illustrator 25.1.0, SVG Export Plug-In . SVG Version: 6.00 Build 0)  -->
<svg version="1.1" id="Layer_1" xmlns="http://www.w3.org/2000/svg" xmlns:xlink="http://www.w3.org/1999/xlink" x="0px" y="0px"
	 viewBox="0 0 305.7 304" style="enable-background:new 0 0 305.7 304;" xml:space="preserve">
<style type="text/css">
	.st0{fill-rule:evenodd;clip-rule:evenodd;fill:#F0DFCF;}
	.st1{fill-rule:evenodd;clip-rule:evenodd;fill:#44392F;}
	.st2{fill-rule:evenodd;clip-rule:evenodd;fill:#BD8B61;}
	.st3{fill-rule:evenodd;clip-rule:evenodd;fill:#996B44;}
	.st4{fill-rule:evenodd;clip-rule:evenodd;fill:#3B4862;}
	.st5{fill-rule:evenodd;clip-rule:evenodd;fill:#010101;}
	.st6{fill-rule:evenodd;clip-rule:evenodd;fill:#FFFFFF;}
</style>
<path class="st0" d="M154.1,3.1c82.6,0,149.5,66.9,149.5,149.5c0,82.6-66.9,149.5-149.5,149.5c-82.6,0-149.5-66.9-149.5-149.5
	C4.6,70.1,71.6,3.1,154.1,3.1L154.1,3.1L154.1,3.1z"/>
<path class="st1" d="M205.1,121.5c40.1-89.3-71.8-108.9-86.9-71.9c-31.8-4-27.3,56.1-9.1,76.8C128.4,148.4,191.9,150.8,205.1,121.5
	L205.1,121.5z"/>
<path class="st1" d="M189.6,135.4c-1.4,11.6,10.9,29.6,23.6,33.8c-11.1,1.2-21.9-0.6-27.1-7.6c3.1,11.1,10.6,13,22.8,18.3
	c-23.8,3.8-43.4-4-50.4-26.7C158.5,153.3,175.6,140.9,189.6,135.4L189.6,135.4z M118.4,135.4c1.4,11.6-10.9,29.6-23.6,33.8
	c11.1,1.2,21.9-0.6,27.1-7.6c-3.1,11.1-10.6,13-22.8,18.3c23.8,3.8,43.4-4,50.4-26.7C149.5,153.3,132.4,140.9,118.4,135.4
	L118.4,135.4z"/>
<path class="st2" d="M134.9,150.5c0.1,23.7,7.1,47.5-21.2,54c-50,11.5-60,28.9-61.4,57.4c26.7,24.9,62.5,40.1,101.9,40.1
	c39.2,0,75-15.1,101.6-39.9c-2.1-27.9-13.3-46.4-62.3-57.7c-28.4-6.5-21.4-30.3-21.2-54C159.8,150.5,147.3,150.5,134.9,150.5
	L134.9,150.5L134.9,150.5z"/>
<path class="st3" d="M134,162.2c4.4,4.7,8.6,6.8,10.6,8.1c7.9,5.4,10.6,5.4,18.6,0c2-1.4,6.2-3.5,10.6-8.1
	C162.1,191.5,145.7,191.2,134,162.2L134,162.2L134,162.2z"/>
<path class="st4" d="M255.7,262.3c-2-26.7-12.4-44.8-56.1-56.2l-36.4,95.7C198.9,299.7,231.1,285.1,255.7,262.3L255.7,262.3
	L255.7,262.3z M108.6,205.8c-45.6,11.5-55,28.7-56.3,56.2c23.6,22,54.4,36.5,88.5,39.5L108.6,205.8L108.6,205.8L108.6,205.8z"/>
<path class="st2" d="M200.4,111.4c3.3,0.7,4.9,7.2,3.7,14.8c-1.3,7.6-5,13.4-8.3,12.8c-3.3-0.6-4.9-7.2-3.7-14.8
	C193.4,116.6,192,109.7,200.4,111.4L200.4,111.4L200.4,111.4z"/>
<path class="st2" d="M107.8,111.4c-3.3,0.7-4.9,7.2-3.7,14.8c1.3,7.6,5,13.4,8.3,12.8c3.3-0.6,4.9-7.2,3.7-14.8
	C114.8,116.6,116.3,109.7,107.8,111.4L107.8,111.4L107.8,111.4z"/>
<path class="st2" d="M143.2,172.1c-5.2-3.1-23.5-18.5-27.7-27.9c-4.6-10.4-5.4-21.1-4.3-31.7c9.4-9.5,14.7-29.4,17.6-37.4
	c23.3,23.1,59.8,35.9,68,37c1.2,10.8,0.4,21.6-4.2,32.2c-4.1,9.4-22.4,24.8-27.7,27.9C155.7,177.5,152.5,177.5,143.2,172.1
	L143.2,172.1L143.2,172.1z"/>
<path class="st5" d="M172.5,108.7c2,0,3.6,2.4,3.6,5.4c0,3-1.6,5.4-3.6,5.4c-2,0-3.6-2.4-3.6-5.4
	C168.9,111.1,170.5,108.7,172.5,108.7L172.5,108.7L172.5,108.7z M135.7,108.7c2,0,3.6,2.4,3.6,5.4c0,3-1.6,5.4-3.6,5.4
	c-2,0-3.6-2.4-3.6-5.4C132.2,111.1,133.8,108.7,135.7,108.7L135.7,108.7L135.7,108.7z"/>
<path class="st6" d="M169.1,145.6c-4.8,14-24.9,14-29.9,0C148.8,148.5,159.5,148.6,169.1,145.6L169.1,145.6L169.1,145.6z"/>
<path class="st3" d="M151.9,124.2c-1,3.3-5.4,13.1,7.6,14.7C148.5,140.4,145.6,134.2,151.9,124.2L151.9,124.2L151.9,124.2z"/>
<path class="st5" d="M169.8,102.4c-4.3,0.5-7.9,1.9-8.6-0.3c-0.4-1.1,0.7-2,2.7-2.6C165.9,100.5,167.9,101.5,169.8,102.4
	L169.8,102.4z M122.4,101.7c-1.8,1.9,6.2-0.1,13.3,0.6c4.6,0.5,8.5,2.1,9.2-0.2c0.7-2.1-3.4-3.2-9-3.6
	C131.4,98.2,124.4,99.6,122.4,101.7L122.4,101.7L122.4,101.7z"/>
<path class="st6" d="M137,184.2c3.1,0,5.7,2.5,5.7,5.7c0-3.1,2.5-5.7,5.7-5.7c3.1,0,5.7,2.5,5.7,5.7c0-3.1,2.5-5.7,5.7-5.7
	c3.1,0,5.7,2.5,5.7,5.7c0-3.1,2.5-5.7,5.7-5.7s5.7,2.5,5.7,5.7c0,3.1-2.5,5.7-5.7,5.7s-5.7-2.5-5.7-5.7c0,3.1-2.5,5.7-5.7,5.7
	c-3.1,0-5.7-2.5-5.7-5.7c0,3.1-2.5,5.7-5.7,5.7c-3.1,0-5.7-2.5-5.7-5.7c0,3.1-2.5,5.7-5.7,5.7c-3.1,0-5.7-2.5-5.7-5.7
	C131.3,186.7,133.9,184.2,137,184.2L137,184.2z"/>
</svg>
