<?xml version="1.0" encoding="utf-8"?>
<!-- Generator: Adobe Illustrator 25.1.0, SVG Export Plug-In . SVG Version: 6.00 Build 0)  -->
<svg version="1.1" id="Layer_1" xmlns="http://www.w3.org/2000/svg" xmlns:xlink="http://www.w3.org/1999/xlink" x="0px" y="0px"
	 viewBox="0 0 466.4 462.3" style="enable-background:new 0 0 466.4 462.3;" xml:space="preserve">
<style type="text/css">
	.st0{fill-rule:evenodd;clip-rule:evenodd;fill:#F0DFCF;}
	.st1{fill-rule:evenodd;clip-rule:evenodd;fill:#AB6C4F;}
	.st2{fill-rule:evenodd;clip-rule:evenodd;fill:#EBB484;}
	.st3{fill-rule:evenodd;clip-rule:evenodd;fill:#E29C8E;}
	.st4{fill-rule:evenodd;clip-rule:evenodd;fill:#D99568;}
	.st5{fill-rule:evenodd;clip-rule:evenodd;fill:#010101;}
	.st6{fill-rule:evenodd;clip-rule:evenodd;fill:#FFFFFF;}
	.st7{fill-rule:evenodd;clip-rule:evenodd;fill:#B55846;}
</style>
<g>
	<path class="st0" d="M233.9,2.9c126.4,0,228.8,102.4,228.8,228.8c0,126.4-102.4,228.8-228.8,228.8C107.5,460.5,5.1,358.1,5.1,231.7
		C5.1,105.4,107.5,2.9,233.9,2.9L233.9,2.9z"/>
	<path class="st1" d="M169.2,174.3c-2.1,17.8-9-2.4-15.5-21.2C124.1,67,215.9,14.5,280.4,57.9c43.6,3.8,48,50.3,34.1,95.1
		c-8.6,27.6-14.4,29.1-15.5,21.2C289.5,106.8,174.6,128.4,169.2,174.3L169.2,174.3z"/>
	<path class="st2" d="M192,224c24.8,0,58.7,0,84.2,0V280c0,12.5,12.3,18,17.9,19.3C376,318,388.9,349.6,390,399
		c-40.9,38.2-95.8,61.5-156.1,61.5c-60.4,0-115.3-23.4-156.2-61.6c0-51,10.7-80.5,94.2-99.7c8.7-2,20.1-6.6,20.1-19.2V224L192,224z"
		/>
	<path class="st3" d="M290,297.9c1.5,0.6,3,1.1,4.1,1.3C376,318,388.9,349.6,390,399c-40.9,38.2-95.8,61.5-156.1,61.5
		c-60.4,0-115.3-23.4-156.2-61.6c0-51,10.7-80.5,94.2-99.7c1.8-0.4,3.6-0.9,5.5-1.6c12.6,9.1,33.2,15.1,56.5,15.1
		C256.9,312.7,277.3,306.9,290,297.9L290,297.9z"/>
	<path class="st4" d="M190.4,223.8h87.4c0,34.6-24,50.3-44,50.3C213.8,274.1,190.4,258.2,190.4,223.8L190.4,223.8z"/>
	<path class="st2" d="M208.7,259c-10.9-6.3-26.8-27.8-33-41.9c-8-18.1-10.7-43-8.1-65.8c3.6-31.8,56.5-23.2,105.5-48.6
		c14.2,11.3,26.3,29,28.6,49.7c2.5,22.3-2.2,46.8-10.1,64.7c-6.2,14.1-22.1,35.5-33,41.9c-5.4,3.2-14.9,6-24.7,6
		C224.2,265,214.2,262.2,208.7,259L208.7,259z"/>
	<path class="st4" d="M231.1,176.4c-1.3,5-7,19.7,9.9,22.1C226.7,200.8,222.9,191.4,231.1,176.4L231.1,176.4z"/>
	<path class="st5" d="M204,157.4c2.7,0,4.8,3.3,4.8,7.3c0,4-2.2,7.3-4.8,7.3c-2.7,0-4.8-3.3-4.8-7.3
		C199.1,160.6,201.3,157.4,204,157.4L204,157.4z M263.8,157.4c2.7,0,4.8,3.3,4.8,7.3c0,4-2.2,7.3-4.8,7.3c-2.7,0-4.8-3.3-4.8-7.3
		C259,160.6,261.1,157.4,263.8,157.4L263.8,157.4z"/>
	<path class="st1" d="M283.8,144.5c-5.2,1.1-32.9,5.7-33.1,0.8C250.3,136,276,140,283.8,144.5L283.8,144.5z M184,144.5
		c5.2,1.1,32.9,5.7,33.1,0.8C217.5,136,191.8,140,184,144.5L184,144.5z"/>
	<path class="st2" d="M161.8,162.3c-4.9,1.6-6.6,12.9-3.5,24.1c3.1,11.2,9.7,19.1,14.7,17.8c5-1.3,6.6-11.5,3.5-22.6
		C173.3,170.4,171.1,159.3,161.8,162.3L161.8,162.3z"/>
	<path class="st6" d="M260.6,214.5c-4.9,27.8-49,27.8-53.4,0C224.1,218.5,243.2,218.7,260.6,214.5L260.6,214.5z"/>
	<path class="st2" d="M306.5,162.3c4.9,1.6,6.6,12.9,3.5,24.1c-3.1,11.2-9.7,19.1-14.7,17.8c-5-1.3-6.6-11.5-3.5-22.6
		C294.9,170.4,297.1,159.3,306.5,162.3L306.5,162.3z"/>
	<path class="st7" d="M299.6,300.6c76.9,18.9,89.3,50.2,90.3,98.5c-34.2,31.9-78.2,53.5-127,59.7L299.6,300.6L299.6,300.6z
		 M77.7,398.9c0-50.2,10.4-79.6,90.3-98.8l36.7,158.5C155.9,452.5,111.9,430.9,77.7,398.9L77.7,398.9z"/>
</g>
</svg>
