<?xml version="1.0" encoding="utf-8"?>
<!-- Generator: Adobe Illustrator 25.1.0, SVG Export Plug-In . SVG Version: 6.00 Build 0)  -->
<svg version="1.1" id="Layer_1" xmlns="http://www.w3.org/2000/svg" xmlns:xlink="http://www.w3.org/1999/xlink" x="0px" y="0px"
	 viewBox="0 0 304.4 305.9" style="enable-background:new 0 0 304.4 305.9;" xml:space="preserve">
<style type="text/css">
	.st0{fill-rule:evenodd;clip-rule:evenodd;fill:#F0DFCF;}
	.st1{fill-rule:evenodd;clip-rule:evenodd;fill:#010101;}
	.st2{fill-rule:evenodd;clip-rule:evenodd;fill:#824E39;}
	.st3{fill-rule:evenodd;clip-rule:evenodd;fill:#E4B29A;}
	.st4{fill-rule:evenodd;clip-rule:evenodd;fill:#592714;}
	.st5{fill-rule:evenodd;clip-rule:evenodd;fill:#FFFFFF;}
	.st6{fill-rule:evenodd;clip-rule:evenodd;fill:#D58C66;}
</style>
<path class="st0" d="M152.2,3.8c82.6,0,149.5,66.9,149.5,149.5c0,82.6-66.9,149.5-149.5,149.5c-82.6,0-149.5-66.9-149.5-149.5
	C2.7,70.7,69.7,3.8,152.2,3.8L152.2,3.8L152.2,3.8z"/>
<path class="st1" d="M110,115.5c-1.4,12.2-5.9-1.6-10.1-14.5c-13-39.4,1.2-76,52.4-73.1c51.9-3,64.5,33,52.6,73.1
	c-5.6,18.8-9.6,19.9-10.1,14.5c-1.8-18-5.2-36.4-19.1-44.9c-3.6-2.2-12.8,6.1-23.3,6.1c-10.5,0-18.6-9-23.3-6.1
	C115.2,79.1,112,97.5,110,115.5L110,115.5L110,115.5z"/>
<path class="st2" d="M124.9,148.2c16.2,0,38.3,0,55,0v36.6c0,8.2,8,11.7,11.7,12.6c53.5,12.3,61.9,32.9,62.6,65.2
	c-26.7,24.9-62.6,40.2-102,40.2c-39.5,0-75.3-15.3-102-40.3c0-33.3,7-52.6,61.6-65.1c5.7-1.3,13.1-4.3,13.1-12.6V148.2L124.9,148.2z
	"/>
<path class="st3" d="M188.9,196.5c1,0.4,1.9,0.7,2.7,0.9c53.5,12.3,61.9,32.9,62.6,65.2c-26.7,24.9-62.6,40.2-102,40.2
	c-39.5,0-75.3-15.3-102-40.3c0-33.3,7-52.6,61.6-65.1c1.2-0.3,2.4-0.6,3.6-1c8.3,6,21.7,9.9,36.9,9.9
	C167.3,206.2,180.6,202.4,188.9,196.5L188.9,196.5L188.9,196.5z"/>
<path class="st4" d="M123.8,148.1h57.1c0,22.6-15.7,32.9-28.7,32.9C139.1,181,123.8,170.6,123.8,148.1L123.8,148.1L123.8,148.1z"/>
<path class="st2" d="M135.8,171c-7.1-4.1-17.5-18.2-21.6-27.4c-9.9-22.4-9.6-61.2,13.7-74.5c4.9-2.8,13.4,6,24.4,6
	c11,0,20.7-8.1,24.5-6c24.2,13.7,23.1,51.9,13.1,74.5c-4.1,9.2-14.4,23.2-21.6,27.4c-3.5,2.1-9.8,3.9-16.1,3.9
	C145.9,175,139.4,173.1,135.8,171L135.8,171L135.8,171z"/>
<path class="st4" d="M150.4,117.1c-0.9,3.3-4.5,12.9,6.4,14.5C147.5,133,145,126.9,150.4,117.1L150.4,117.1L150.4,117.1z"/>
<path class="st1" d="M171.8,104.7c1.7,0,3.2,2.1,3.2,4.8c0,2.6-1.4,4.8-3.2,4.8c-1.7,0-3.2-2.1-3.2-4.8
	C168.6,106.8,170,104.7,171.8,104.7L171.8,104.7L171.8,104.7z M132.7,104.7c1.8,0,3.2,2.1,3.2,4.8c0,2.6-1.4,4.8-3.2,4.8
	c-1.7,0-3.2-2.1-3.2-4.8C129.5,106.8,130.9,104.7,132.7,104.7L132.7,104.7L132.7,104.7z"/>
<path class="st1" d="M119.6,96.3c3.4,0.7,21.5,3.7,21.6,0.5C141.5,90.7,124.7,93.3,119.6,96.3L119.6,96.3L119.6,96.3z M184.9,96.3
	c-3.4,0.7-21.5,3.7-21.6,0.5C162.9,90.7,179.7,93.3,184.9,96.3L184.9,96.3L184.9,96.3z"/>
<path class="st2" d="M105.1,107.9c-3.2,1-4.3,8.4-2.3,15.7c2,7.3,6.3,12.5,9.6,11.6c3.3-0.9,4.3-7.5,2.3-14.8
	C112.7,113.2,111.2,105.9,105.1,107.9L105.1,107.9L105.1,107.9z"/>
<path class="st5" d="M169.7,142c-3.2,18.2-32,18.1-34.9,0C145.8,144.6,158.3,144.7,169.7,142L169.7,142L169.7,142z"/>
<path class="st2" d="M199.7,107.9c3.2,1,4.3,8.4,2.3,15.7c-2,7.3-6.3,12.5-9.6,11.6c-3.3-0.9-4.3-7.5-2.3-14.8
	C192.1,113.2,193.5,105.9,199.7,107.9L199.7,107.9L199.7,107.9z"/>
<path class="st6" d="M50.2,262.5c0-32.8,6.8-52,59-64.5l24,103.6C101.3,297.5,72.5,283.4,50.2,262.5L50.2,262.5L50.2,262.5z
	 M195.2,198.2c50.3,12.4,58.3,32.8,59,64.3c-22.3,20.9-51.1,35-83,39L195.2,198.2L195.2,198.2L195.2,198.2z"/>
</svg>
