<?xml version="1.0" encoding="utf-8"?>
<!-- Generator: Adobe Illustrator 25.1.0, SVG Export Plug-In . SVG Version: 6.00 Build 0)  -->
<svg version="1.1" id="Layer_1" xmlns="http://www.w3.org/2000/svg" xmlns:xlink="http://www.w3.org/1999/xlink" x="0px" y="0px"
	 viewBox="0 0 303.8 302.8" style="enable-background:new 0 0 303.8 302.8;" xml:space="preserve">
<style type="text/css">
	.st0{fill-rule:evenodd;clip-rule:evenodd;fill:#F0DFCF;}
	.st1{fill-rule:evenodd;clip-rule:evenodd;fill:#F0BF92;}
	.st2{fill-rule:evenodd;clip-rule:evenodd;fill:#B55846;}
	.st3{fill-rule:evenodd;clip-rule:evenodd;fill:#98644F;}
	.st4{fill-rule:evenodd;clip-rule:evenodd;fill:#9A6733;}
	.st5{fill-rule:evenodd;clip-rule:evenodd;fill:#D99568;}
	.st6{fill-rule:evenodd;clip-rule:evenodd;fill:#010101;}
</style>
<path class="st0" d="M152.2,2c82.6,0,149.5,66.9,149.5,149.5c0,82.6-66.9,149.5-149.5,149.5C69.7,301,2.7,234,2.7,151.5
	C2.7,68.9,69.7,2,152.2,2L152.2,2L152.2,2z"/>
<path class="st1" d="M124.9,143.2c16.2,0,38.3,0,55,0v36.5c0,8.2,8,11.7,11.7,12.6c55.2,12.7,62.4,34.2,62.7,68.3
	c-26.7,25-62.6,40.3-102,40.3c-39.4,0-75.3-15.3-102-40.2c-0.4-35.3,5.2-55.4,61.5-68.4c5.7-1.3,13.1-4.3,13.1-12.6V143.2
	L124.9,143.2z"/>
<path class="st2" d="M188.9,191.5c1,0.4,1.9,0.7,2.7,0.9c55.2,12.7,62.4,34.2,62.7,68.3c-26.7,25-62.6,40.3-102,40.3
	c-39.4,0-75.3-15.3-102-40.2c-0.4-35.3,5.2-55.4,61.5-68.4c1.1-0.3,2.4-0.6,3.6-1c8.3,6,21.7,9.9,36.9,9.9
	C167.3,201.2,180.6,197.4,188.9,191.5L188.9,191.5L188.9,191.5z"/>
<path class="st3" d="M123.8,143.1h57.1c0,22.6-15.7,32.9-28.7,32.9C139.1,176,123.8,165.6,123.8,143.1L123.8,143.1L123.8,143.1z"/>
<path class="st4" d="M191.3,120.4c-18.4,17.9-56.7,18.2-74.7,0c-11.1-11.3-18.4-26.3-21.2-40.7c-4.8-24.4,6.2-46.8,26.7-46
	c39.7-31.9,91-2.9,88.4,45.9C209.7,93.8,203.5,108.5,191.3,120.4L191.3,120.4L191.3,120.4z"/>
<path class="st1" d="M135.9,164.7c-7.1-4.2-17.5-18.2-21.6-27.4c-5-11.4-7.3-24.5-6.9-37.2c0.5-17.5,3.2-34,22.2-39.8
	c20.6,18.2,65.9-0.4,67.6,39.5c0.5,12.6-1.9,25.5-7.2,37.5c-4.1,9.2-14.4,23.2-21.6,27.4c-3.5,2.1-9.8,3.9-16.1,3.9
	C146,168.6,139.5,166.8,135.9,164.7L135.9,164.7L135.9,164.7z"/>
<path class="st5" d="M150.6,110.7c-0.9,3.3-4.6,12.9,6.5,14.5C147.7,126.7,145.2,120.5,150.6,110.7L150.6,110.7L150.6,110.7z"/>
<path class="st6" d="M172,98.8c1.8,0,3.2,2.1,3.2,4.8c0,2.6-1.4,4.8-3.2,4.8c-1.7,0-3.2-2.1-3.2-4.8
	C168.8,100.9,170.2,98.8,172,98.8L172,98.8L172,98.8z M132.8,98.8c1.8,0,3.2,2.1,3.2,4.8c0,2.6-1.4,4.8-3.2,4.8
	c-1.7,0-3.2-2.1-3.2-4.8C129.6,100.9,131.1,98.8,132.8,98.8L132.8,98.8L132.8,98.8z"/>
<path class="st4" d="M119.7,93.9c3.4,0.7,21.5,3.7,21.7,0.5C141.7,88.3,124.9,90.9,119.7,93.9L119.7,93.9L119.7,93.9z M185,93.9
	c-3.4,0.7-21.5,3.7-21.6,0.5C163.1,88.3,179.9,90.9,185,93.9L185,93.9L185,93.9z"/>
<path class="st1" d="M105.2,101.5c-3.2,1-4.3,8.4-2.3,15.7c2,7.3,6.3,12.5,9.6,11.6c3.3-0.9,4.3-7.5,2.3-14.8
	C112.8,106.8,111.4,99.6,105.2,101.5L105.2,101.5L105.2,101.5z"/>
<path class="st1" d="M199.8,101.5c3.2,1,4.3,8.4,2.3,15.7c-2,7.3-6.3,12.5-9.6,11.6c-3.3-0.9-4.3-7.5-2.3-14.8
	C192.3,106.8,193.7,99.6,199.8,101.5L199.8,101.5L199.8,101.5z"/>
<path class="st4" d="M136.4,173.9c-7.1-4.2-17.9-27.4-22-36.6c-4.8-10.9-7-23.3-6.9-35.4c16.3,58.5,20.2,25.7,44.9,25.7
	s28.2,32.5,44.9-25.9c0.2,12-2.2,24.2-7.2,35.6c-4.1,9.2-14,32.4-21.2,36.6c-3.5,2.1-9.8,3.9-16.1,3.9
	C147.7,177.8,140.8,176.5,136.4,173.9L136.4,173.9z"/>
<path class="st1" d="M167.4,138.1c-2.8,15.6-27.5,15.6-30,0C146.9,140.3,157.6,140.4,167.4,138.1L167.4,138.1L167.4,138.1z"/>
<path class="st6" d="M75.2,205.2L72.5,278c23.1,14.6,50.4,23,79.7,23c29.3,0,56.6-8.4,79.7-23l-2.5-71.7
	c-8.7-5.3-20.2-9.7-35.8-13.4l-41.5,101l-41.4-101.3C95.4,196.2,83.8,200.3,75.2,205.2L75.2,205.2z"/>
</svg>
