<?xml version="1.0" encoding="utf-8"?>
<!-- Generator: Adobe Illustrator 25.1.0, SVG Export Plug-In . SVG Version: 6.00 Build 0)  -->
<svg version="1.1" id="Layer_1" xmlns="http://www.w3.org/2000/svg" xmlns:xlink="http://www.w3.org/1999/xlink" x="0px" y="0px"
	 viewBox="0 0 306.9 305.3" style="enable-background:new 0 0 306.9 305.3;" xml:space="preserve">
<style type="text/css">
	.st0{fill-rule:evenodd;clip-rule:evenodd;fill:#F0DFCF;}
	.st1{fill-rule:evenodd;clip-rule:evenodd;fill:#FFFFFF;}
	.st2{fill-rule:evenodd;clip-rule:evenodd;fill:#F0BF92;}
	.st3{fill-rule:evenodd;clip-rule:evenodd;fill:#D7A47B;}
	.st4{fill-rule:evenodd;clip-rule:evenodd;fill:#9D887B;}
	.st5{fill-rule:evenodd;clip-rule:evenodd;fill:#010101;}
	.st6{fill-rule:evenodd;clip-rule:evenodd;fill:#B55846;}
</style>
<path class="st0" d="M153.5,2.5C236,2.5,303,69.4,303,152S236,301.5,153.5,301.5C70.9,301.5,4,234.6,4,152S70.9,2.5,153.5,2.5
	L153.5,2.5z"/>
<path class="st1" d="M89,227h128.3c9.7-56.3,18.7-186.9-64-186.9C72,40.1,80.4,171.7,89,227L89,227z"/>
<path class="st2" d="M133,160.8c0.1,23.7,8.4,47.5-20,54c-43.8,10.1-57,24.7-60.4,47.5c26.6,24.4,62,39.2,100.9,39.2
	c38.7,0,73.9-14.7,100.4-38.7c-4.2-22.6-18-38.1-61-47.9c-28.4-6.5-20.1-30.3-20-54C160.4,160.8,145.5,160.8,133,160.8L133,160.8z"
	/>
<path class="st2" d="M199.8,122.7c3.3,0.6,4.9,6.9,3.7,14.3c-1.3,7.4-5,12.9-8.3,12.3c-3.3-0.5-4.9-6.9-3.7-14.3
	C192.8,127.6,191.3,121,199.8,122.7L199.8,122.7z"/>
<path class="st2" d="M107.2,122.7c-3.3,0.6-4.9,6.9-3.7,14.3c1.3,7.4,5,12.9,8.3,12.3c3.3-0.5,4.9-6.9,3.7-14.3
	C114.2,127.6,115.6,121,107.2,122.7L107.2,122.7z"/>
<path class="st3" d="M132.5,172.4c13.7,14.6,27.9,14.2,41.2,0C162.2,201.8,144.3,201.4,132.5,172.4L132.5,172.4z"/>
<path class="st2" d="M142.6,182.3c-5.2-3-23.5-18.5-27.7-27.9c-12.8-28.9-1-83.1,38.5-83.1c40.2,0,51.3,54.2,38.6,83.1
	c-4.1,9.4-22.4,24.8-27.7,27.9C155.1,187.7,151.9,187.7,142.6,182.3L142.6,182.3z"/>
<path class="st1" d="M168.4,155.8c-4.8,14-24.9,14-29.9,0C148.1,158.7,158.8,158.8,168.4,155.8L168.4,155.8z"/>
<path class="st3" d="M151.3,134.4c-1,3.3-5.4,13.1,7.6,14.7C147.9,150.7,145,144.4,151.3,134.4L151.3,134.4z"/>
<path class="st4" d="M122.8,111.4c-1.8,1.3,6.2-0.1,13.3,0.4c4.6,0.3,8.5,1.4,9.2-0.1c0.7-1.4-3.4-2.1-9-2.4
	C131.8,109,124.8,110,122.8,111.4L122.8,111.4z M184.2,111.4c1.8,1.3-6.2-0.1-13.3,0.4c-4.6,0.3-8.5,1.4-9.2-0.1
	c-0.7-1.4,3.4-2.1,9-2.4C175.1,109,182.2,110,184.2,111.4L184.2,111.4z"/>
<path class="st5" d="M171.7,122.7c3.9-0.5,7.1,0.1,7.3,1.3c0.2,1.2-2.8,2.7-6.7,3.2c-3.9,0.5-7.1-0.1-7.3-1.3
	C164.9,124.7,167.9,123.3,171.7,122.7L171.7,122.7z"/>
<path class="st5" d="M135.2,122.7c-3.9-0.5-7.1,0.1-7.3,1.3c-0.2,1.2,2.8,2.7,6.7,3.2c3.9,0.5,7.1-0.1,7.3-1.3
	S139.1,123.3,135.2,122.7L135.2,122.7z"/>
<path class="st6" d="M130.4,203.8c-3,5.1-8.4,8.9-17.4,11c-43.8,10.1-57,24.7-60.4,47.5c26.6,24.4,62,39.2,100.9,39.2
	c38.7,0,73.9-14.7,100.4-38.7c-4.2-22.6-18-38.1-61-47.9c-8.9-2-14.1-5.8-17.2-10.6l-22.2,53.2L130.4,203.8L130.4,203.8z"/>
<path class="st6" d="M155.6,129.9c1.3,8.2,8.3,13.8,16.8,13.5c12.6-0.5,17.9-14.6,19.3-24.8c-5.3-3.3-22.9-1.9-31.8,3.2
	c-5.5,3.1-7.3,3.1-12.8,0c-8.9-5.1-26.5-6.5-31.8-3.2c1.4,10.1,7.1,24.3,19.3,24.8c8.5,0.4,15.5-5.3,16.8-13.5
	C151.9,127.3,155.1,127.3,155.6,129.9L155.6,129.9z M157.8,128.6c-0.3,7.7,6.8,12.9,14.5,12.6c12.2-0.5,17.5-15.8,12-19.8
	C178.9,117.3,158.2,120.9,157.8,128.6L157.8,128.6z M149.2,128.6c0.3,7.7-6.8,12.9-14.5,12.6c-12.2-0.5-17.5-15.8-12-19.8
	C128.2,117.3,148.9,120.9,149.2,128.6L149.2,128.6z"/>
<path class="st1" d="M161.9,67c38.3,2.3,49.4,31.7,38.9,55.3c-3-8.4-6.8-22.4-6.8-27.9c-1.4,6.8-2.3,13.5-1.4,20.6
	c-5.7-8.9-8.4-15.3-8.5-24.6c-4.4,8.4-13.3,15.3-22.9,19c9.9-12.3,14.9-22.6,17.2-28.2c-4.3,6.7-23.1,34.8-40.1,39.3
	c13.8-13.7,18.8-23.3,24.4-33.1c-6.6,7-33.6,27.6-52.9,40.1C98.1,98.9,116.3,64.3,161.9,67L161.9,67z"/>
</svg>
