<?xml version="1.0" encoding="utf-8"?>
<!-- Generator: Adobe Illustrator 25.1.0, SVG Export Plug-In . SVG Version: 6.00 Build 0)  -->
<svg version="1.1" id="Layer_1" xmlns="http://www.w3.org/2000/svg" xmlns:xlink="http://www.w3.org/1999/xlink" x="0px" y="0px"
	 viewBox="0 0 304.4 305.3" style="enable-background:new 0 0 304.4 305.3;" xml:space="preserve">
<style type="text/css">
	.st0{fill-rule:evenodd;clip-rule:evenodd;fill:#F0DFCF;}
	.st1{fill-rule:evenodd;clip-rule:evenodd;fill:#EBB484;}
	.st2{fill-rule:evenodd;clip-rule:evenodd;fill:#845260;}
	.st3{fill-rule:evenodd;clip-rule:evenodd;fill:#D99568;}
	.st4{fill-rule:evenodd;clip-rule:evenodd;fill:#D7843D;}
	.st5{fill-rule:evenodd;clip-rule:evenodd;fill:#FFFFFF;}
	.st6{fill-rule:evenodd;clip-rule:evenodd;fill:#543C15;}
</style>
<path class="st0" d="M152.2,3.8c82.6,0,149.5,66.9,149.5,149.5c0,82.6-66.9,149.5-149.5,149.5c-82.6,0-149.5-66.9-149.5-149.5
	C2.7,70.7,69.7,3.8,152.2,3.8L152.2,3.8L152.2,3.8z"/>
<path class="st1" d="M124.9,140.1c16.2,0,38.3,0,55,0v36.5c0,8.2,8,11.7,11.7,12.6c57.8,13.3,63,36.3,62.7,73.3
	c-26.7,25-62.6,40.2-102,40.2c-39.4,0-75.2-15.2-101.9-40.2c-0.9-38.5,2.5-59.9,61.4-73.4c5.7-1.3,13.1-4.3,13.1-12.6V140.1
	L124.9,140.1z"/>
<path class="st2" d="M188.9,188.3c1,0.4,1.9,0.7,2.7,0.9c57.8,13.3,63,36.3,62.7,73.3c-26.7,25-62.6,40.2-102,40.2
	c-39.4,0-75.2-15.2-101.9-40.2c-0.9-38.5,2.5-59.9,61.4-73.4c1.2-0.3,2.4-0.6,3.6-1L188.9,188.3L188.9,188.3L188.9,188.3z"/>
<path class="st3" d="M122.8,140l59-0.1c0,22.6-16.4,33-29.5,33C134.1,172.8,122.8,156.7,122.8,140L122.8,140z"/>
<path class="st1" d="M114.2,135.5c-14.9-33.7-16.6-95.1,37.7-95.1c54.2,0,53.2,60.7,38,95.1c-7,15.9-18.9,31.2-37.7,31.3
	C133.5,166.9,121.5,151.9,114.2,135.5L114.2,135.5z"/>
<path class="st3" d="M150.3,108.9c-0.9,3.3-4.5,12.9,6.4,14.4C147.4,124.9,144.9,118.8,150.3,108.9L150.3,108.9L150.3,108.9z"/>
<path class="st4" d="M119.5,90.2c3.4,0.7,21.5,3.7,21.6,0.5C141.4,84.6,124.6,87.3,119.5,90.2L119.5,90.2L119.5,90.2z M184.7,90.2
	c-3.4,0.7-21.5,3.7-21.6,0.5C162.8,84.6,179.6,87.3,184.7,90.2L184.7,90.2L184.7,90.2z"/>
<path class="st5" d="M169.7,133.8c-5.5,18.7-31.2,18.1-34.9,0C146,137.1,157.5,137.3,169.7,133.8L169.7,133.8z"/>
<path class="st4" d="M175.2,63c20.3-10.1,13.6,28.1,13.6,34.4l0,13.6l4.1-0.1c0.1-8.4,3.3-12,9.5-8c16.8-58.8-1.4-79.1-50-79.1
	c-48.6,0-63.5,23.3-50,79c5.5-3.3,10-0.1,9.4,8.2l4.1,0.1l0-13.6c0-6.9-8-42.3,12.6-34.4C140.3,67.6,163.5,68.7,175.2,63L175.2,63z"
	/>
<path class="st1" d="M104.2,99.8c-3.2,1-4.3,8.4-2.3,15.7c2,7.3,6.3,12.5,9.6,11.6c3.3-0.9,4.3-7.5,2.3-14.8
	C111.7,105,110.3,97.8,104.2,99.8L104.2,99.8L104.2,99.8z M200,99.8c3.2,1,4.3,8.4,2.3,15.7c-2,7.3-6.3,12.5-9.6,11.6
	c-3.3-0.9-4.3-7.5-2.3-14.8C192.5,105,193.9,97.8,200,99.8L200,99.8L200,99.8z"/>
<path class="st6" d="M170.6,99c1.8,0,3.2,2.1,3.2,4.8c0,2.6-1.4,4.8-3.2,4.8c-1.8,0-3.2-2.1-3.2-4.8C167.4,101.1,168.9,99,170.6,99
	L170.6,99z"/>
<path class="st6" d="M133.6,99c1.8,0,3.2,2.1,3.2,4.8c0,2.6-1.4,4.8-3.2,4.8c-1.8,0-3.2-2.1-3.2-4.8C130.4,101.1,131.8,99,133.6,99
	L133.6,99z"/>
</svg>
