<?xml version="1.0" encoding="utf-8"?>
<!-- Generator: Adobe Illustrator 25.1.0, SVG Export Plug-In . SVG Version: 6.00 Build 0)  -->
<svg version="1.1" id="Layer_1" xmlns="http://www.w3.org/2000/svg" xmlns:xlink="http://www.w3.org/1999/xlink" x="0px" y="0px"
	 viewBox="0 0 305.7 305.3" style="enable-background:new 0 0 305.7 305.3;" xml:space="preserve">
<style type="text/css">
	.st0{fill-rule:evenodd;clip-rule:evenodd;fill:#F0DFCF;}
	.st1{fill-rule:evenodd;clip-rule:evenodd;fill:#524B3D;}
	.st2{fill-rule:evenodd;clip-rule:evenodd;fill:#EBAA57;}
	.st3{fill-rule:evenodd;clip-rule:evenodd;fill:#CA8933;}
	.st4{fill-rule:evenodd;clip-rule:evenodd;fill:#FFFFFF;}
	.st5{fill-rule:evenodd;clip-rule:evenodd;fill:#403C34;}
	.st6{fill-rule:evenodd;clip-rule:evenodd;fill:#FCF9CE;}
	.st7{fill-rule:evenodd;clip-rule:evenodd;fill:#63313F;}
	.st8{fill-rule:evenodd;clip-rule:evenodd;fill:#010101;}
</style>
<path class="st0" d="M152.8,4.4c82.6,0,149.5,66.9,149.5,149.5s-66.9,149.5-149.5,149.5c-82.6,0-149.5-66.9-149.5-149.5
	S70.3,4.4,152.8,4.4L152.8,4.4z"/>
<path class="st1" d="M154.3,43.2c-5.9-6-14.1-6.9-22.6-7.2c5,1.1,10.8,4.6,11.7,8.6c0-3.2-16.4-9.2-26.5-0.4
	c6.3-0.9,12.3,0.2,14.9,2.4c0,0-17.3-0.2-24.9,7.7c10.8-2.2,13.4-2.1,19.6-1.2c-7.7-0.1-24,3.8-32.3,19.5
	c4.3-3.6,16.6-10.6,21.1-10.1c-51,17.1-16.8,103.2,37.1,104.5c54,1.4,92.2-87.3,40.7-104.5c4.5-0.6,16.8,6.4,21.1,10.1
	C206,56.8,189.7,52.9,182,53c6.2-0.9,8.8-1,19.6,1.2c-7.5-8-24.9-7.7-24.9-7.7c2.6-2.1,8.7-3.2,14.9-2.4c-10-8.8-26.5-2.8-26.5,0.4
	c0.9-4,6.7-7.5,11.7-8.6C168.4,36.3,160.1,37.2,154.3,43.2L154.3,43.2z"/>
<path class="st2" d="M132.4,162.7c0.1,23.7,8.4,47.5-20,54c-43.8,10.1-57,24.7-60.4,47.5c26.6,24.4,62,39.2,100.9,39.2
	c38.7,0,73.9-14.7,100.4-38.7c-4.2-22.6-18-38.1-61-47.9c-28.4-6.5-20.1-30.3-20-54C159.8,162.7,144.8,162.7,132.4,162.7
	L132.4,162.7z"/>
<path class="st2" d="M199.2,124.6c3.3,0.6,4.9,6.9,3.7,14.3c-1.3,7.4-5,12.9-8.3,12.3c-3.3-0.5-4.9-6.9-3.7-14.3
	C192.2,129.5,190.7,122.9,199.2,124.6L199.2,124.6z"/>
<path class="st2" d="M106.5,124.6c-3.3,0.6-4.9,6.9-3.7,14.3c1.3,7.4,5,12.9,8.3,12.3c3.3-0.5,4.9-6.9,3.7-14.3
	C113.5,129.5,115,122.9,106.5,124.6L106.5,124.6z"/>
<path class="st3" d="M131.9,174.3c13.7,14.6,27.9,14.2,41.2,0C161.5,203.7,143.6,203.3,131.9,174.3L131.9,174.3z"/>
<path class="st2" d="M142,184.2c-5.2-3-23.5-18.5-27.7-27.9c-12.8-28.9-1-83.1,38.5-83.1c40.2,0,51.3,54.2,38.6,83.1
	c-4.1,9.4-22.4,24.8-27.7,27.9C154.4,189.6,151.3,189.6,142,184.2L142,184.2z"/>
<path class="st4" d="M167.8,157.7c-4.8,14-24.9,14-29.9,0C147.5,160.6,158.2,160.7,167.8,157.7L167.8,157.7z"/>
<path class="st3" d="M150.7,136.3c-1,3.3-5.4,13.1,7.6,14.7C147.3,152.6,144.3,146.3,150.7,136.3L150.7,136.3z"/>
<path class="st5" d="M122.1,112.3c-1.8,1.3,6.2-0.1,13.3,0.4c4.6,0.3,8.5,1.4,9.2-0.1c0.7-1.4-3.4-2.1-9-2.4
	C131.2,109.9,124.2,110.9,122.1,112.3L122.1,112.3z M183.6,112.3c1.8,1.3-6.2-0.1-13.3,0.4c-4.6,0.3-8.5,1.4-9.2-0.1
	c-0.7-1.4,3.4-2.1,9-2.4C174.5,109.9,181.5,110.9,183.6,112.3L183.6,112.3z"/>
<path class="st6" d="M129.8,205.7c-3,5.1-8.4,8.9-17.4,11c-43.8,10.1-57,24.7-60.4,47.5c26.6,24.4,62,39.2,100.9,39.2
	c38.7,0,73.9-14.7,100.4-38.7c-4.2-22.6-18-38.1-61-47.9c-8.9-2-14.1-5.8-17.2-10.6l-22.1,87.5L129.8,205.7L129.8,205.7z"/>
<path class="st7" d="M131.2,114.1c9,0,16.1,5.5,17,12.5h9.5c0.8-7,8.1-12.5,16.9-12.5c9.4,0,17,6.2,17,13.9c0,7.7-7.6,13.9-17,13.9
	c-8.8,0-16.1-5.5-17-12.5h-9.5c-0.8,7-7.9,12.5-17,12.5c-9.2,0-17-6.2-17-13.9C114.2,120.3,121.9,114.1,131.2,114.1L131.2,114.1z
	 M131.2,116.6c7.7,0,14,5.1,14,11.4c0,6.3-6.3,11.4-14,11.4c-7.7,0-14-5.1-14-11.4C117.2,121.7,123.5,116.6,131.2,116.6L131.2,116.6
	z M174.3,116.6c7.7,0,14,5.1,14,11.4c0,6.3-6.3,11.4-14,11.4c-7.7,0-14-5.1-14-11.4C160.4,121.7,166.6,116.6,174.3,116.6
	L174.3,116.6z"/>
<path class="st1" d="M161.3,68.9c38.3,2.3,49.4,31.7,38.9,55.3c-3-8.4-6.8-22.4-6.8-27.9c-1.7,12.3-1.5,16.5-2,23.5
	c-5.4-9.2-6.4-12.1-8-27.5c-4.4,8.4-13.3,15.3-22.9,19c9.9-12.3,14.9-22.6,17.2-28.2c-4.3,6.7-23.1,34.8-40.1,39.3
	c13.8-13.7,18.8-23.3,24.4-33.1c-6.6,7-33.6,27.6-52.9,40.1C97.5,100.7,115.6,66.2,161.3,68.9L161.3,68.9z"/>
<path class="st7" d="M120,214.1l22.1,88.9c-34.7-2.4-66.1-16.7-90.3-38.8c3.5-22.7,16.6-37.4,60.4-47.5
	C115.3,216,117.8,215.2,120,214.1L120,214.1z M163,303c34.6-2.3,66.1-16.5,90.3-38.4c-4.2-22.6-18-38.1-61-47.9
	c-2.7-0.6-5.1-1.4-7.1-2.3L163,303L163,303z"/>
<path class="st8" d="M134.5,122.3c2,0,3.6,2.4,3.6,5.4c0,3-1.6,5.4-3.6,5.4c-2,0-3.6-2.4-3.6-5.4
	C130.9,124.7,132.5,122.3,134.5,122.3L134.5,122.3z M171.3,122.3c2,0,3.6,2.4,3.6,5.4c0,3-1.6,5.4-3.6,5.4c-2,0-3.6-2.4-3.6-5.4
	C167.7,124.7,169.3,122.3,171.3,122.3L171.3,122.3z"/>
</svg>
